<svg id="Layer_3" enable-background="new 0 0 64 64" height="512" viewBox="0 0 64 64" width="512" xmlns="http://www.w3.org/2000/svg"><g><path d="m41.413 31.999 1.293-1.292c.189-.187.294-.442.294-.708l-.001-6.486 6.02-4.299 2.425 1.617c.461.306 1.08.182 1.388-.277l1.919-2.88 4.248-3.54v15.865c0 .265.105.52.293.707l1.293 1.293c.268.267.415.623.415 1.001 0 .371-.15.735-.415.999l-1.171 1.171c-2.446 1.195-5.168 1.83-7.888 1.83h-1.055c-2.72 0-5.442-.635-7.887-1.83l-1.171-1.171c-.268-.267-.414-.622-.414-1s.147-.733.414-1zm1.587 29.999v-8.461c2.367.954 4.919 1.461 7.472 1.461h1.055c2.553 0 5.104-.507 7.472-1.461l.001 8.461zm17.585-11.999-1.171 1.17c-2.444 1.195-5.167 1.83-7.887 1.83h-1.055c-2.723 0-5.446-.635-7.89-1.832l-1.168-1.168c-.268-.267-.414-.622-.414-1.001 0-.377.146-.732.414-.999l1.293-1.293c.188-.187.293-.442.293-.708v-8.461c2.369.955 4.92 1.462 7.472 1.462h1.055c2.551 0 5.103-.507 7.472-1.462v8.461c0 .266.105.521.293.708l1.293 1.293c.268.267.415.623.415 1.001-.001.371-.151.735-.415.999z"/><path d="m9.706 29.732c-1.429-.408-2.739-1.18-3.788-2.229-1.3-1.299-2.146-2.942-2.446-4.754l-.256-1.533 1.533.256c1.812.301 3.455 1.146 4.754 2.446 1.05 1.049 1.821 2.359 2.229 3.788l.811 2.837zm5.293 32.267.001-17.462c2.369.956 4.92 1.463 7.472 1.463h1.055c2.552 0 5.104-.508 7.473-1.463v17.462zm17.586-21-1.171 1.17c-2.446 1.196-5.168 1.831-7.888 1.831h-1.055c-2.722 0-5.445-.636-7.89-1.833l-1.168-1.168c-.268-.267-.414-.622-.414-1s.146-.733.414-1l1.293-1.293c.189-.187.294-.442.294-.707v-13.462c2.369.956 4.92 1.463 7.472 1.463h1.055c2.552 0 5.104-.508 7.473-1.463v13.462c0 .265.104.52.292.707l1.293 1.293c.268.267.415.622.415 1.001-.001.377-.148.732-.415.999zm-.001-21-1.171 1.171c-2.445 1.195-5.167 1.83-7.887 1.83h-1.055c-2.722 0-5.445-.636-7.89-1.833l-1.168-1.168c-.267-.267-.413-.622-.413-1.001 0-.377.146-.732.414-.999l1.293-1.293c.188-.187.293-.442.293-.708v-14h15.999v14c0 .266.104.521.292.708l1.293 1.293c.268.267.415.622.415 1.001 0 .377-.147.732-.415.999zm2.871-3.456.811-2.837c.408-1.429 1.18-2.739 2.229-3.788 1.299-1.3 2.942-2.146 4.754-2.446l1.533-.256-.256 1.533c-.301 1.812-1.146 3.455-2.446 4.754-1.049 1.05-2.359 1.821-3.788 2.229z"/></g></svg>