<?xml version="1.0" encoding="iso-8859-1"?>
<!-- Generator: Adobe Illustrator 17.1.0, SVG Export Plug-In . SVG Version: 6.00 Build 0)  -->
<!DOCTYPE svg PUBLIC "-//W3C//DTD SVG 1.1//EN" "http://www.w3.org/Graphics/SVG/1.1/DTD/svg11.dtd">
<svg version="1.1" id="Capa_1" xmlns="http://www.w3.org/2000/svg" xmlns:xlink="http://www.w3.org/1999/xlink" x="0px" y="0px"
	 viewBox="0 0 343.906 343.906" style="enable-background:new 0 0 343.906 343.906;" xml:space="preserve">
<g>
	<path d="M201.203,299.906c0-4.418-3.582-8-8-8h-43c-4.418,0-8,3.582-8,8v36c0,4.418,3.582,8,8,8h43c4.418,0,8-3.582,8-8V299.906z"
		/>
	<path d="M296.151,146.44c3.604-8.668,5.428-17.852,5.428-27.361c0-39.431-32.079-71.511-71.51-71.511
		c-2.086,0-4.192,0.095-6.303,0.283C220.011,20.619,196.797,0,168.725,0c-30.648,0-55.582,24.934-55.582,55.582
		c0,3.551,0.341,7.092,1.018,10.578c-33.032,10.149-55.689,40.521-55.689,75.52c0,4.238,0.349,8.504,1.039,12.731
		c-22.799,7.918-38.348,29.487-38.348,53.993c0,31.519,25.642,57.161,57.16,57.161c0.148,0,0.297-0.004,0.502-0.013l177.51,0.007
		c0.093,0.004,0.187,0.006,0.281,0.006c36.464,0,66.129-29.665,66.129-66.129C322.744,178.419,312.88,158.913,296.151,146.44z"/>
</g>
<g>
</g>
<g>
</g>
<g>
</g>
<g>
</g>
<g>
</g>
<g>
</g>
<g>
</g>
<g>
</g>
<g>
</g>
<g>
</g>
<g>
</g>
<g>
</g>
<g>
</g>
<g>
</g>
<g>
</g>
</svg>
