<svg id="Layer_1" enable-background="new 0 0 512.009 512.009" height="512" viewBox="0 0 512.009 512.009" width="512" xmlns="http://www.w3.org/2000/svg"><g><path d="m225.795 108.699c11.389 11.647 21.511 24.215 30.205 37.395 8.694-13.18 18.816-25.747 30.204-37.394 4.384-4.484 8.941-8.789 13.628-12.921-6.635-37.854-17.615-69.462-31.756-89.427-2.826-3.991-7.313-6.347-12.086-6.347-4.772 0-9.26 2.356-12.086 6.347-14.139 19.962-25.117 51.564-31.752 89.413 4.692 4.136 9.254 8.446 13.643 12.934z"/><path d="m362.003 147.637c11.032-1.584 22.198-2.387 33.188-2.387 8.837 0 17.531.522 26.023 1.534l47.359-48.434c3.746-3.832 5.164-9.369 3.721-14.529-1.444-5.159-5.53-9.157-10.72-10.488-48.005-12.309-108.418 9.809-153.92 56.341-16.035 16.399-28.979 34.584-38.457 53.345 25.927-17.998 57.935-30.377 92.806-35.382z"/><path d="m508.806 222.04c-27.94-35.577-83.891-53.125-142.54-44.707-23.635 3.392-45.653 10.715-64.626 20.992 42.601 2.199 88.106 20.288 126.184 50.396 2.689 2.126 5.311 4.315 7.898 6.533l63.419-9.103c5.303-.761 9.798-4.293 11.791-9.266 1.994-4.973 1.184-10.632-2.126-14.845z"/><path d="m84.177 248.721c38.08-30.109 83.589-48.199 126.194-50.396-18.973-10.277-40.991-17.6-64.627-20.993-58.65-8.419-114.6 9.13-142.54 44.707-3.31 4.213-4.12 9.872-2.126 14.846 1.993 4.973 6.488 8.505 11.791 9.266l63.411 9.102c2.586-2.217 5.208-4.406 7.897-6.532z"/><path d="m409.216 272.254c-48.651-38.468-107.903-53.196-153.216-38.648-45.312-14.546-104.565.18-153.216 38.648-51.052 40.367-79.385 98.13-72.181 147.158.779 5.301 4.326 9.784 9.306 11.761 1.79.711 3.667 1.059 5.533 1.059 3.325 0 6.613-1.105 9.306-3.234l201.252-159.133 201.253 159.132c2.692 2.129 5.98 3.234 9.306 3.234 1.865 0 3.743-.348 5.533-1.059 4.979-1.978 8.526-6.46 9.306-11.761 7.203-49.027-21.13-106.79-72.182-147.157z"/><path d="m90.787 146.785c8.495-1.012 17.191-1.535 26.032-1.535 10.989 0 22.156.803 33.188 2.387 34.864 5.005 66.867 17.379 92.79 35.37-9.477-18.757-22.42-36.938-38.451-53.334-45.502-46.531-105.916-68.649-153.921-56.34-5.19 1.33-9.276 5.329-10.72 10.488-1.443 5.16-.025 10.698 3.721 14.529z"/><path d="m306.133 347.751-50.133-39.641-50.163 39.664-24.652 146.745c-.73 4.352.491 8.805 3.342 12.174 2.85 3.368 7.038 5.311 11.451 5.311h120.024c4.413 0 8.602-1.943 11.452-5.311 2.85-3.369 4.071-7.822 3.341-12.174z"/></g></svg>